<svg id="图层_1" data-name="图层 1" xmlns="http://www.w3.org/2000/svg" xmlns:xlink="http://www.w3.org/1999/xlink" viewBox="0 0 554.82 554.82"><defs><style>.cls-1{fill:none;}.cls-2{fill:#f0f2eb;}.cls-3{fill:#fdfffe;}.cls-4{fill:#8dc16b;}.cls-5{clip-path:url(#clip-path);}</style><clipPath id="clip-path" transform="translate(-28.34 -137.48)"><rect class="cls-1" x="28.43" y="137.21" width="555.15" height="555.78"/></clipPath></defs><title>icon</title><rect class="cls-2" x="41.44" y="42.88" width="472.19" height="472.19"/><rect class="cls-3" x="75.65" y="77.09" width="404.97" height="404.98"/><path class="cls-4" d="M554,664.6H57.49V168.08H554ZM542,180.36H69.78V652.55H542Zm0,0" transform="translate(-28.34 -137.48)"/><path class="cls-4" d="M513.3,623.88H98.21V208.79H513.3Zm-10.12-405H108.33V613.52H502.94Zm0,0" transform="translate(-28.34 -137.48)"/><g class="cls-5"><path class="cls-4" d="M206.86,506.8H404.65V515H206.86Zm37.58,31.56H367.07v5.78H244.44ZM447.77,336H432.6v86H383V336H367.31V436.45H448Zm-105,0H260.34V436.45H276V397.18h66.73ZM276,382.73V350.44h51.08V383ZM237.94,422H180.12V350.44H237.7V336h-74V436.45h74V422Zm0,0" transform="translate(-28.34 -137.48)"/><path class="cls-4" d="M447.77,336v-1.45H431.15v86h-47v-86H365.62V437.9h83.6V334.54h-1.45V336h-1.44v99H368.51V337.44h13v86H434v-86h13.73V336h0Zm-105,0v-1.45H258.9V437.9h18.55V398.63h66.73V334.54h-1.45V336h-1.44v59.75H274.56V435h-13V337.44H342.5V336h.23ZM276,382.73h1.45V351.89h48.18v29.63H276v1.21h0v1.44h52.28V349H274.56v35.41H276ZM237.94,422v-1.45H181.56V351.89h57.58V334.54H162.29V437.9h76.85V420.55H237.7l.24,1.45h-1.69v13H165.18V337.44h71.07V349H178.67v74.68h59V422h.24ZM83.51,137.48h14.7v32.76H83.51Zm28.91,0h14.7v32.76h-14.7Zm28.91,0H156v32.76h-14.7Zm28.91,0h14.7v32.76h-14.7Zm28.67,0h14.7v32.76h-14.7Zm28.91,0h14.7v32.76h-14.7Zm28.91,0h14.69v32.76H256.73Zm28.67,0h14.69v32.76H285.4Zm28.91,0H329v32.76H314.31Zm28.91,0h14.69v32.76H343.22Zm28.67,0h14.69v32.76H371.89Zm28.91,0h14.69v32.76H400.8Zm28.91,0H444.4v32.76H429.71Zm28.66,0h14.7v32.76h-14.7Zm28.91,0H502v32.76h-14.7Zm28.91,0h14.7v32.76h-14.7Zm34.21,55.17h32.77v14.69H550.4Zm0,28.91h32.77v14.69H550.4Zm0,28.67h32.77v14.69H550.4Zm0,28.9h32.77v14.7H550.4Zm0,28.92h32.77v14.69H550.4Zm0,28.9h32.77v14.7H550.4Zm0,28.67h32.77v14.7H550.4Zm0,28.91h32.77v14.7H550.4Zm0,28.91h32.77v14.7H550.4Zm0,28.67h32.77v14.7H550.4Zm0,28.91h32.77v14.7H550.4Zm0,28.91h32.77v14.7H550.4Zm0,28.67h32.77v14.69H550.4Zm0,28.91h32.77V582.2H550.4Zm0,28.91h32.77v14.69H550.4Zm0,28.66h32.77v14.7H550.4ZM28.34,192.65H61.11v14.69H28.34Zm0,28.91H61.11v14.69H28.34Zm.25,28.91H61.35v14.69H28.59Zm-.25,28.91H61.11v14.69H28.34Zm0,28.67H61.11v14.69H28.34Zm.25,28.9H61.35v14.7H28.59Zm0,28.92H61.35v14.69H28.59Zm-.25,28.66H61.11v14.7H28.34Zm.25,28.91H61.35v14.7H28.59Zm0,28.91H61.35v14.7H28.59ZM28.34,481H61.11v14.7H28.34Zm.25,28.91H61.35v14.7H28.59Zm0,28.91H61.35v14.69H28.59Zm-.25,28.91H61.11v14.7H28.34Zm0,28.67H61.11v14.69H28.34Zm.25,28.91H61.35V640H28.59Zm54.92,34.21h14.7V692.3H83.51Zm28.91,0h14.7V692.3h-14.7Zm28.91,0H156V692.3h-14.7Zm28.91,0h14.7V692.3h-14.7Zm28.67,0h14.7V692.3h-14.7Zm28.91,0h14.7V692.3h-14.7Zm28.91,0h14.69V692.3H256.73Zm28.67,0h14.69V692.3H285.4Zm28.91,0H329V692.3H314.31Zm28.91,0h14.69V692.3H343.22Zm28.67,0h14.69V692.3H371.89Zm28.91,0h14.69V692.3H400.8Zm28.91,0H444.4V692.3H429.71Zm28.66,0h14.7V692.3h-14.7Zm28.91,0H502V692.3h-14.7Zm28.91,0h14.7V692.3h-14.7Zm0,0" transform="translate(-28.34 -137.48)"/></g><path class="cls-4" d="M122.54,236.25a7.47,7.47,0,1,0,7.47-7.47,7.47,7.47,0,0,0-7.47,7.47Zm0,0" transform="translate(-28.34 -137.48)"/><path class="cls-4" d="M474.27,236.25a7.47,7.47,0,1,0,7.47-7.47,7.47,7.47,0,0,0-7.47,7.47Zm0,0" transform="translate(-28.34 -137.48)"/><path class="cls-4" d="M122.54,596.66a7.47,7.47,0,1,0,7.47-7.47,7.48,7.48,0,0,0-7.47,7.47Zm0,0" transform="translate(-28.34 -137.48)"/><path class="cls-4" d="M474.27,596.66a7.47,7.47,0,1,0,7.47-7.47,7.48,7.48,0,0,0-7.47,7.47Zm0,0" transform="translate(-28.34 -137.48)"/></svg>