<svg id="图层_1" data-name="图层 1" xmlns="http://www.w3.org/2000/svg" viewBox="0 0 235.2 101.19"><defs><style>.cls-1{fill:#8cc63f;}.cls-2{fill:#4fc59a;}.cls-3{fill:#919191;}.cls-4{fill:#576779;}.cls-5{fill:#ccc;}</style></defs><title>logo</title><path class="cls-1" d="M262.57,214.55a1.66,1.66,0,0,1-1.88,1.89h-16a1.67,1.67,0,0,1-1.89-1.89v-15a1.67,1.67,0,0,1,1.89-1.88h16a1.66,1.66,0,0,1,1.88,1.88Zm0,65.28a1.66,1.66,0,0,1-1.88,1.89h-16a1.67,1.67,0,0,1-1.89-1.89V225.47a1.67,1.67,0,0,1,1.89-1.89h16a1.66,1.66,0,0,1,1.88,1.89Z" transform="translate(-242.8 -194.81)"/><path class="cls-2" d="M297.89,196.3a1.84,1.84,0,0,1,2.09-1.49h21.13a2,2,0,0,1,2.08,1.49l26.69,82.15a1.61,1.61,0,0,1,.1.69c0,1-.56,1.49-1.69,1.49H330.93a1.91,1.91,0,0,1-2.08-1.49L323,261.28H298l-5.75,17.86a2,2,0,0,1-2.08,1.49H272.79a1.68,1.68,0,0,1-1.44-.6,1.72,1.72,0,0,1-.14-1.58Zm5.86,47.12h13.49l-6.75-20.93Z" transform="translate(-242.8 -194.81)"/><path class="cls-3" d="M360.5,281a1.67,1.67,0,0,1-1.89-1.88V268.92A1.67,1.67,0,0,1,360.5,267h29.86V259.3H360.1a1.67,1.67,0,0,1-1.89-1.89V225.27a1.67,1.67,0,0,1,1.89-1.89h48.61a1.67,1.67,0,0,1,1.89,1.89v10.22a1.67,1.67,0,0,1-1.89,1.88H379.35v7.74h30.26a1.66,1.66,0,0,1,1.88,1.88v32.15a1.66,1.66,0,0,1-1.88,1.88Z" transform="translate(-242.8 -194.81)"/><path class="cls-4" d="M449.59,236.28l7.34-11.21a2.69,2.69,0,0,1,2.28-1.29h17c1.05,0,1.58.43,1.58,1.29a1.34,1.34,0,0,1-.39,1L460.2,252.65l17.17,26.29a1.37,1.37,0,0,1,.39,1c0,.86-.53,1.29-1.58,1.29H458.91a2.69,2.69,0,0,1-2.28-1.29l-7-10.81-6.95,10.81a2.39,2.39,0,0,1-2.28,1.29H423.1q-1.59,0-1.59-1.29a1.34,1.34,0,0,1,.4-1L439,252.65l-17.06-26.59a1.31,1.31,0,0,1-.4-1q0-1.29,1.59-1.29h17a2.69,2.69,0,0,1,2.29,1.29Z" transform="translate(-242.8 -194.81)"/><rect class="cls-2" x="67.2" width="168" height="11" rx="1.42"/><path class="cls-5" d="M477.3,291h-234a.5.5,0,0,0-.5.5v4a.5.5,0,0,0,.5.5h234a.5.5,0,0,0,.5-.5v-4a.5.5,0,0,0-.5-.5Z" transform="translate(-242.8 -194.81)"/></svg>