<?xml version="1.0" encoding="utf-8"?>
<!-- Generator: Adobe Illustrator 23.1.0, SVG Export Plug-In . SVG Version: 6.00 Build 0)  -->
<svg version="1.1" id="图层_1" xmlns="http://www.w3.org/2000/svg" xmlns:xlink="http://www.w3.org/1999/xlink" x="0px" y="0px"
	 viewBox="0 0 235.2 101.2" style="enable-background:new 0 0 235.2 101.2;" xml:space="preserve">
<style type="text/css">
	.st0{fill:#8CC63F;}
	.st1{fill:#4FC59A;}
	.st2{fill:#919191;}
	.st3{fill:#576779;}
	.st4{fill:#CCCCCC;}
</style>
<title>logo</title>
<path class="st0" d="M19.8,19.7c0.1,0.9-0.5,1.8-1.4,1.9c-0.2,0-0.3,0-0.5,0h-16C1,21.8,0.1,21.1,0,20.2c0-0.2,0-0.3,0-0.5v-15
	C-0.1,3.8,0.5,3,1.4,2.9c0.2,0,0.3,0,0.5,0h16c0.9-0.1,1.7,0.5,1.9,1.4c0,0.2,0,0.3,0,0.5V19.7z M19.8,85c0.1,0.9-0.5,1.8-1.4,1.9
	c-0.2,0-0.3,0-0.5,0h-16C1,87,0.1,86.4,0,85.5c0-0.2,0-0.3,0-0.5V30.7c-0.1-0.9,0.5-1.8,1.4-1.9c0.2,0,0.3,0,0.5,0h16
	c0.9-0.1,1.7,0.5,1.9,1.4c0,0.2,0,0.3,0,0.5V85z"/>
<path class="st1" d="M55.1,1.5c0.2-1,1.1-1.6,2.1-1.5h21.1c1-0.1,1.8,0.6,2.1,1.5l26.7,82.2c0.1,0.2,0.1,0.5,0.1,0.7
	c0,1-0.6,1.5-1.7,1.5H88.1c-1,0.1-1.9-0.5-2.1-1.5l-5.9-17.9h-25l-5.8,17.9c-0.2,0.9-1.1,1.6-2.1,1.5H30c-0.5,0-1.1-0.2-1.4-0.6
	c-0.3-0.5-0.4-1.1-0.1-1.6L55.1,1.5z M60.9,48.6h13.5l-6.8-20.9L60.9,48.6z"/>
<path class="st2" d="M117.7,86.2c-0.9,0.1-1.8-0.5-1.9-1.4c0-0.2,0-0.3,0-0.5V74.1c-0.1-0.9,0.5-1.8,1.4-1.9c0.2,0,0.3,0,0.5,0h29.9
	v-7.7h-30.3c-0.9,0.1-1.8-0.5-1.9-1.4c0-0.2,0-0.3,0-0.5V30.5c-0.1-0.9,0.5-1.8,1.4-1.9c0.2,0,0.3,0,0.5,0h48.6
	c0.9-0.1,1.8,0.5,1.9,1.4c0,0.2,0,0.3,0,0.5v10.2c0.1,0.9-0.5,1.8-1.4,1.9c-0.2,0-0.3,0-0.5,0h-29.4v7.7h30.3
	c0.9-0.1,1.7,0.5,1.9,1.4c0,0.2,0,0.3,0,0.5v32.1c0.1,0.9-0.5,1.7-1.4,1.9c-0.2,0-0.3,0-0.5,0L117.7,86.2z"/>
<path class="st3" d="M206.8,41.5l7.3-11.2c0.5-0.8,1.3-1.3,2.3-1.3h17c1,0,1.6,0.4,1.6,1.3c0,0.4-0.1,0.7-0.4,1l-17.2,26.6
	l17.2,26.3c0.3,0.3,0.4,0.6,0.4,1c0,0.9-0.5,1.3-1.6,1.3h-17.3c-0.9,0-1.8-0.5-2.3-1.3l-7-10.8l-7,10.8c-0.4,0.8-1.3,1.4-2.3,1.3
	h-17.3c-1.1,0-1.6-0.4-1.6-1.3c0-0.4,0.1-0.7,0.4-1l17.1-26.3l-17.1-26.6c-0.3-0.3-0.4-0.6-0.4-1c0-0.9,0.5-1.3,1.6-1.3h17
	c0.9,0,1.8,0.5,2.3,1.3L206.8,41.5z"/>
<path class="st1" d="M68.6,0h165.2c0.8,0,1.4,0.5,1.4,1.1v6.3c0,0.6-0.6,1.1-1.4,1.1H68.6c-0.8,0-1.4-0.5-1.4-1.1V1.1
	C67.2,0.5,67.8,0,68.6,0z"/>
<path class="st4" d="M234.5,98.4H0.5c-0.3,0-0.5,0.1-0.5,0.3v2.3c0,0.2,0.2,0.3,0.5,0.3h234c0.3,0,0.5-0.1,0.5-0.3v-2.3
	C235,98.5,234.8,98.4,234.5,98.4z"/>
</svg>
